<svg id="Layer_2" data-name="Layer 2" xmlns="http://www.w3.org/2000/svg" viewBox="0 0 169.28 110.71">
  <defs>
    <style>
      .cls-1 {
        fill: none;
        stroke: #222;
        stroke-miterlimit: 10;
      }
    </style>
  </defs>
  <title>icon-lwrad</title>
  <path class="cls-1" d="M101.5,128.5h0a14.15,14.15,0,0,0,0-20h0a14.15,14.15,0,0,1,0-20h0a14.15,14.15,0,0,0,0-20h0a14.15,14.15,0,0,1,0-20h0" transform="translate(-16.86 -18.15)"/>
  <path class="cls-1" d="M61.5,113.5h0a14.15,14.15,0,0,0,0-20h0a14.15,14.15,0,0,1,0-20h0a14.15,14.15,0,0,0,0-20h0a14.15,14.15,0,0,1,0-20h0" transform="translate(-16.86 -18.15)"/>
  <path class="cls-1" d="M21.5,98.5h0a14.15,14.15,0,0,0,0-20h0a14.15,14.15,0,0,1,0-20h0a14.15,14.15,0,0,0,0-20h0a14.15,14.15,0,0,1,0-20h0" transform="translate(-16.86 -18.15)"/>
  <path class="cls-1" d="M141.5,113.5h0a14.15,14.15,0,0,0,0-20h0a14.15,14.15,0,0,1,0-20h0a14.15,14.15,0,0,0,0-20h0a14.15,14.15,0,0,1,0-20h0" transform="translate(-16.86 -18.15)"/>
  <path class="cls-1" d="M181.5,98.5h0a14.15,14.15,0,0,0,0-20h0a14.15,14.15,0,0,1,0-20h0a14.15,14.15,0,0,0,0-20h0a14.15,14.15,0,0,1,0-20h0" transform="translate(-16.86 -18.15)"/>
</svg>
